<?xml version="1.0" encoding="utf-8" standalone="no"?>
<!DOCTYPE svg PUBLIC "-//W3C//DTD SVG 1.1//EN"
  "http://www.w3.org/Graphics/SVG/1.1/DTD/svg11.dtd">
<svg xmlns:xlink="http://www.w3.org/1999/xlink" width="640.143917pt" height="459.279844pt" viewBox="0 0 640.143917 459.279844" xmlns="http://www.w3.org/2000/svg" version="1.1">
 <metadata>
  <rdf:RDF xmlns:dc="http://purl.org/dc/elements/1.1/" xmlns:cc="http://creativecommons.org/ns#" xmlns:rdf="http://www.w3.org/1999/02/22-rdf-syntax-ns#">
   <cc:Work>
    <dc:type rdf:resource="http://purl.org/dc/dcmitype/StillImage"/>
    <dc:date>2026-06-06T18:21:40.621872</dc:date>
    <dc:format>image/svg+xml</dc:format>
    <dc:creator>
     <cc:Agent>
      <dc:title>Matplotlib v3.10.9, https://matplotlib.org/</dc:title>
     </cc:Agent>
    </dc:creator>
   </cc:Work>
  </rdf:RDF>
 </metadata>
 <defs>
  <style type="text/css">*{stroke-linejoin: round; stroke-linecap: butt}</style>
 </defs>
 <g id="figure_1">
  <g id="patch_1">
   <path d="M 0 459.279844 
L 640.143917 459.279844 
L 640.143917 0 
L 0 0 
z
" style="fill: #ffffff"/>
  </g>
  <g id="axes_1">
   <g id="patch_2">
    <path d="M 49.727656 419.0725 
L 568.014929 419.0725 
L 568.014929 22.7925 
L 49.727656 22.7925 
z
" style="fill: #ffffff"/>
   </g>
   <g id="PathCollection_1">
    <defs>
     <path id="m2d86ca3382" d="M 0 3.872983 
C 1.027127 3.872983 2.012324 3.464901 2.738613 2.738613 
C 3.464901 2.012324 3.872983 1.027127 3.872983 0 
C 3.872983 -1.027127 3.464901 -2.012324 2.738613 -2.738613 
C 2.012324 -3.464901 1.027127 -3.872983 0 -3.872983 
C -1.027127 -3.872983 -2.012324 -3.464901 -2.738613 -2.738613 
C -3.464901 -2.012324 -3.872983 -1.027127 -3.872983 0 
C -3.872983 1.027127 -3.464901 2.012324 -2.738613 2.738613 
C -2.012324 3.464901 -1.027127 3.872983 0 3.872983 
z
" style="stroke: #757575; stroke-opacity: 0.6"/>
    </defs>
    <g clip-path="url(#pd24ed6d945)">
     <use xlink:href="#m2d86ca3382" x="108.926883" y="259.036346" style="fill: #bdbdbd; fill-opacity: 0.6; stroke: #757575; stroke-opacity: 0.6"/>
     <use xlink:href="#m2d86ca3382" x="108.926883" y="259.036346" style="fill: #bdbdbd; fill-opacity: 0.6; stroke: #757575; stroke-opacity: 0.6"/>
     <use xlink:href="#m2d86ca3382" x="73.286169" y="373.347885" style="fill: #bdbdbd; fill-opacity: 0.6; stroke: #757575; stroke-opacity: 0.6"/>
     <use xlink:href="#m2d86ca3382" x="108.926883" y="259.036346" style="fill: #bdbdbd; fill-opacity: 0.6; stroke: #757575; stroke-opacity: 0.6"/>
     <use xlink:href="#m2d86ca3382" x="544.456417" y="68.517115" style="fill: #bdbdbd; fill-opacity: 0.6; stroke: #757575; stroke-opacity: 0.6"/>
     <use xlink:href="#m2d86ca3382" x="144.567598" y="297.140192" style="fill: #bdbdbd; fill-opacity: 0.6; stroke: #757575; stroke-opacity: 0.6"/>
     <use xlink:href="#m2d86ca3382" x="73.286169" y="373.347885" style="fill: #bdbdbd; fill-opacity: 0.6; stroke: #757575; stroke-opacity: 0.6"/>
     <use xlink:href="#m2d86ca3382" x="108.926883" y="259.036346" style="fill: #bdbdbd; fill-opacity: 0.6; stroke: #757575; stroke-opacity: 0.6"/>
     <use xlink:href="#m2d86ca3382" x="144.567598" y="297.140192" style="fill: #bdbdbd; fill-opacity: 0.6; stroke: #757575; stroke-opacity: 0.6"/>
     <use xlink:href="#m2d86ca3382" x="508.815702" y="144.724808" style="fill: #bdbdbd; fill-opacity: 0.6; stroke: #757575; stroke-opacity: 0.6"/>
     <use xlink:href="#m2d86ca3382" x="108.926883" y="259.036346" style="fill: #bdbdbd; fill-opacity: 0.6; stroke: #757575; stroke-opacity: 0.6"/>
     <use xlink:href="#m2d86ca3382" x="108.926883" y="259.036346" style="fill: #bdbdbd; fill-opacity: 0.6; stroke: #757575; stroke-opacity: 0.6"/>
     <use xlink:href="#m2d86ca3382" x="330.612129" y="144.724808" style="fill: #bdbdbd; fill-opacity: 0.6; stroke: #757575; stroke-opacity: 0.6"/>
     <use xlink:href="#m2d86ca3382" x="401.180744" y="106.620962" style="fill: #bdbdbd; fill-opacity: 0.6; stroke: #757575; stroke-opacity: 0.6"/>
     <use xlink:href="#m2d86ca3382" x="108.926883" y="259.036346" style="fill: #bdbdbd; fill-opacity: 0.6; stroke: #757575; stroke-opacity: 0.6"/>
     <use xlink:href="#m2d86ca3382" x="108.926883" y="259.036346" style="fill: #bdbdbd; fill-opacity: 0.6; stroke: #757575; stroke-opacity: 0.6"/>
     <use xlink:href="#m2d86ca3382" x="451.790558" y="68.517115" style="fill: #bdbdbd; fill-opacity: 0.6; stroke: #757575; stroke-opacity: 0.6"/>
     <use xlink:href="#m2d86ca3382" x="323.483986" y="182.828654" style="fill: #bdbdbd; fill-opacity: 0.6; stroke: #757575; stroke-opacity: 0.6"/>
     <use xlink:href="#m2d86ca3382" x="187.336456" y="182.828654" style="fill: #bdbdbd; fill-opacity: 0.6; stroke: #757575; stroke-opacity: 0.6"/>
     <use xlink:href="#m2d86ca3382" x="108.926883" y="259.036346" style="fill: #bdbdbd; fill-opacity: 0.6; stroke: #757575; stroke-opacity: 0.6"/>
     <use xlink:href="#m2d86ca3382" x="252.202556" y="220.9325" style="fill: #bdbdbd; fill-opacity: 0.6; stroke: #757575; stroke-opacity: 0.6"/>
     <use xlink:href="#m2d86ca3382" x="180.208313" y="220.9325" style="fill: #bdbdbd; fill-opacity: 0.6; stroke: #757575; stroke-opacity: 0.6"/>
     <use xlink:href="#m2d86ca3382" x="366.252843" y="182.828654" style="fill: #bdbdbd; fill-opacity: 0.6; stroke: #757575; stroke-opacity: 0.6"/>
     <use xlink:href="#m2d86ca3382" x="73.286169" y="373.347885" style="fill: #bdbdbd; fill-opacity: 0.6; stroke: #757575; stroke-opacity: 0.6"/>
     <use xlink:href="#m2d86ca3382" x="222.97717" y="220.9325" style="fill: #bdbdbd; fill-opacity: 0.6; stroke: #757575; stroke-opacity: 0.6"/>
     <use xlink:href="#m2d86ca3382" x="401.180744" y="106.620962" style="fill: #bdbdbd; fill-opacity: 0.6; stroke: #757575; stroke-opacity: 0.6"/>
     <use xlink:href="#m2d86ca3382" x="73.286169" y="373.347885" style="fill: #bdbdbd; fill-opacity: 0.6; stroke: #757575; stroke-opacity: 0.6"/>
     <use xlink:href="#m2d86ca3382" x="108.926883" y="259.036346" style="fill: #bdbdbd; fill-opacity: 0.6; stroke: #757575; stroke-opacity: 0.6"/>
     <use xlink:href="#m2d86ca3382" x="329.899314" y="144.724808" style="fill: #bdbdbd; fill-opacity: 0.6; stroke: #757575; stroke-opacity: 0.6"/>
     <use xlink:href="#m2d86ca3382" x="473.174987" y="106.620962" style="fill: #bdbdbd; fill-opacity: 0.6; stroke: #757575; stroke-opacity: 0.6"/>
     <use xlink:href="#m2d86ca3382" x="151.695741" y="259.036346" style="fill: #bdbdbd; fill-opacity: 0.6; stroke: #757575; stroke-opacity: 0.6"/>
     <use xlink:href="#m2d86ca3382" x="108.926883" y="259.036346" style="fill: #bdbdbd; fill-opacity: 0.6; stroke: #757575; stroke-opacity: 0.6"/>
     <use xlink:href="#m2d86ca3382" x="544.456417" y="68.517115" style="fill: #bdbdbd; fill-opacity: 0.6; stroke: #757575; stroke-opacity: 0.6"/>
    </g>
   </g>
   <g id="matplotlib.axis_1">
    <g id="xtick_1">
     <g id="line2d_1">
      <path d="M 88.968083 419.0725 
L 88.968083 22.7925 
" clip-path="url(#pd24ed6d945)" style="fill: none; stroke: #b0b0b0; stroke-opacity: 0.3; stroke-width: 0.8; stroke-linecap: square"/>
     </g>
     <g id="line2d_2">
      <defs>
       <path id="me800985d63" d="M 0 0 
L 0 3.5 
" style="stroke: #000000; stroke-width: 0.8"/>
      </defs>
      <g>
       <use xlink:href="#me800985d63" x="88.968083" y="419.0725" style="stroke: #000000; stroke-width: 0.8"/>
      </g>
     </g>
     <g id="text_1">
      <!-- 210 -->
      <g transform="translate(80.171989 434.06625) scale(0.1 -0.1)">
       <defs>
        <path id="MicrosoftYaHei-32" d="M 2666 3572 
Q 2666 3963 2419 4186 
Q 2172 4409 1747 4409 
Q 1447 4409 1140 4256 
Q 834 4103 569 3819 
L 569 4413 
Q 806 4659 1107 4790 
Q 1409 4922 1816 4922 
Q 2472 4922 2872 4570 
Q 3272 4219 3272 3619 
Q 3272 3084 3026 2693 
Q 2781 2303 2188 1894 
Q 1581 1475 1376 1294 
Q 1172 1113 1090 947 
Q 1009 781 1009 544 
L 3416 544 
L 3416 0 
L 372 0 
L 372 241 
Q 372 659 486 951 
Q 600 1244 862 1520 
Q 1125 1797 1681 2184 
Q 2250 2584 2458 2886 
Q 2666 3188 2666 3572 
z
" transform="scale(0.015625)"/>
        <path id="MicrosoftYaHei-31" d="M 1781 0 
L 1781 4141 
Q 1638 3997 1295 3819 
Q 953 3641 663 3569 
L 663 4169 
Q 1047 4275 1484 4508 
Q 1922 4741 2156 4947 
L 2388 4947 
L 2388 0 
L 1781 0 
z
" transform="scale(0.015625)"/>
        <path id="MicrosoftYaHei-30" d="M 284 2325 
Q 284 3606 709 4264 
Q 1134 4922 1941 4922 
Q 3478 4922 3478 2441 
Q 3478 1216 3045 567 
Q 2613 -81 1831 -81 
Q 1094 -81 689 534 
Q 284 1150 284 2325 
z
M 909 2353 
Q 909 425 1888 425 
Q 2850 425 2850 2384 
Q 2850 4413 1906 4413 
Q 909 4413 909 2353 
z
" transform="scale(0.015625)"/>
       </defs>
       <use xlink:href="#MicrosoftYaHei-32"/>
       <use xlink:href="#MicrosoftYaHei-31" transform="translate(58.642578 0)"/>
       <use xlink:href="#MicrosoftYaHei-30" transform="translate(117.285156 0)"/>
      </g>
     </g>
    </g>
    <g id="xtick_2">
     <g id="line2d_3">
      <path d="M 160.249512 419.0725 
L 160.249512 22.7925 
" clip-path="url(#pd24ed6d945)" style="fill: none; stroke: #b0b0b0; stroke-opacity: 0.3; stroke-width: 0.8; stroke-linecap: square"/>
     </g>
     <g id="line2d_4">
      <g>
       <use xlink:href="#me800985d63" x="160.249512" y="419.0725" style="stroke: #000000; stroke-width: 0.8"/>
      </g>
     </g>
     <g id="text_2">
      <!-- 220 -->
      <g transform="translate(151.453419 434.06625) scale(0.1 -0.1)">
       <use xlink:href="#MicrosoftYaHei-32"/>
       <use xlink:href="#MicrosoftYaHei-32" transform="translate(58.642578 0)"/>
       <use xlink:href="#MicrosoftYaHei-30" transform="translate(117.285156 0)"/>
      </g>
     </g>
    </g>
    <g id="xtick_3">
     <g id="line2d_5">
      <path d="M 231.530942 419.0725 
L 231.530942 22.7925 
" clip-path="url(#pd24ed6d945)" style="fill: none; stroke: #b0b0b0; stroke-opacity: 0.3; stroke-width: 0.8; stroke-linecap: square"/>
     </g>
     <g id="line2d_6">
      <g>
       <use xlink:href="#me800985d63" x="231.530942" y="419.0725" style="stroke: #000000; stroke-width: 0.8"/>
      </g>
     </g>
     <g id="text_3">
      <!-- 230 -->
      <g transform="translate(222.734848 434.06625) scale(0.1 -0.1)">
       <defs>
        <path id="MicrosoftYaHei-33" d="M 447 809 
Q 944 425 1569 425 
Q 2069 425 2361 670 
Q 2653 916 2653 1328 
Q 2653 2247 1338 2247 
L 934 2247 
L 934 2753 
L 1319 2753 
Q 2484 2753 2484 3616 
Q 2484 4413 1594 4413 
Q 1084 4413 634 4069 
L 634 4647 
Q 1109 4922 1744 4922 
Q 2363 4922 2738 4598 
Q 3113 4275 3113 3759 
Q 3113 2809 2144 2538 
L 2144 2525 
Q 2669 2469 2973 2155 
Q 3278 1841 3278 1372 
Q 3278 719 2808 319 
Q 2338 -81 1556 -81 
Q 869 -81 447 175 
L 447 809 
z
" transform="scale(0.015625)"/>
       </defs>
       <use xlink:href="#MicrosoftYaHei-32"/>
       <use xlink:href="#MicrosoftYaHei-33" transform="translate(58.642578 0)"/>
       <use xlink:href="#MicrosoftYaHei-30" transform="translate(117.285156 0)"/>
      </g>
     </g>
    </g>
    <g id="xtick_4">
     <g id="line2d_7">
      <path d="M 302.812371 419.0725 
L 302.812371 22.7925 
" clip-path="url(#pd24ed6d945)" style="fill: none; stroke: #b0b0b0; stroke-opacity: 0.3; stroke-width: 0.8; stroke-linecap: square"/>
     </g>
     <g id="line2d_8">
      <g>
       <use xlink:href="#me800985d63" x="302.812371" y="419.0725" style="stroke: #000000; stroke-width: 0.8"/>
      </g>
     </g>
     <g id="text_4">
      <!-- 240 -->
      <g transform="translate(294.016277 434.06625) scale(0.1 -0.1)">
       <defs>
        <path id="MicrosoftYaHei-34" d="M 2906 4841 
L 2906 1644 
L 3631 1644 
L 3631 1138 
L 2906 1138 
L 2906 0 
L 2313 0 
L 2313 1138 
L 53 1138 
L 53 1616 
Q 656 2294 1265 3178 
Q 1875 4063 2272 4841 
L 2906 4841 
z
M 741 1644 
L 2313 1644 
L 2313 3950 
Q 1988 3366 1616 2817 
Q 1244 2269 741 1644 
z
" transform="scale(0.015625)"/>
       </defs>
       <use xlink:href="#MicrosoftYaHei-32"/>
       <use xlink:href="#MicrosoftYaHei-34" transform="translate(58.642578 0)"/>
       <use xlink:href="#MicrosoftYaHei-30" transform="translate(117.285156 0)"/>
      </g>
     </g>
    </g>
    <g id="xtick_5">
     <g id="line2d_9">
      <path d="M 374.0938 419.0725 
L 374.0938 22.7925 
" clip-path="url(#pd24ed6d945)" style="fill: none; stroke: #b0b0b0; stroke-opacity: 0.3; stroke-width: 0.8; stroke-linecap: square"/>
     </g>
     <g id="line2d_10">
      <g>
       <use xlink:href="#me800985d63" x="374.0938" y="419.0725" style="stroke: #000000; stroke-width: 0.8"/>
      </g>
     </g>
     <g id="text_5">
      <!-- 250 -->
      <g transform="translate(365.297707 434.06625) scale(0.1 -0.1)">
       <defs>
        <path id="MicrosoftYaHei-35" d="M 3294 1494 
Q 3294 784 2823 350 
Q 2353 -84 1559 -84 
Q 878 -84 544 119 
L 544 744 
Q 1034 425 1544 425 
Q 2050 425 2361 704 
Q 2672 984 2672 1447 
Q 2672 1909 2348 2167 
Q 2025 2425 1434 2425 
Q 978 2425 613 2384 
L 791 4841 
L 3053 4841 
L 3053 4303 
L 1306 4303 
L 1206 2931 
L 1647 2950 
Q 2416 2950 2855 2567 
Q 3294 2184 3294 1494 
z
" transform="scale(0.015625)"/>
       </defs>
       <use xlink:href="#MicrosoftYaHei-32"/>
       <use xlink:href="#MicrosoftYaHei-35" transform="translate(58.642578 0)"/>
       <use xlink:href="#MicrosoftYaHei-30" transform="translate(117.285156 0)"/>
      </g>
     </g>
    </g>
    <g id="xtick_6">
     <g id="line2d_11">
      <path d="M 445.37523 419.0725 
L 445.37523 22.7925 
" clip-path="url(#pd24ed6d945)" style="fill: none; stroke: #b0b0b0; stroke-opacity: 0.3; stroke-width: 0.8; stroke-linecap: square"/>
     </g>
     <g id="line2d_12">
      <g>
       <use xlink:href="#me800985d63" x="445.37523" y="419.0725" style="stroke: #000000; stroke-width: 0.8"/>
      </g>
     </g>
     <g id="text_6">
      <!-- 260 -->
      <g transform="translate(436.579136 434.06625) scale(0.1 -0.1)">
       <defs>
        <path id="MicrosoftYaHei-36" d="M 3181 4219 
Q 2803 4413 2391 4413 
Q 1763 4413 1381 3866 
Q 1000 3319 994 2372 
L 1009 2372 
Q 1353 3038 2106 3038 
Q 2734 3038 3109 2628 
Q 3484 2219 3484 1541 
Q 3484 831 3051 375 
Q 2619 -81 1947 -81 
Q 1209 -81 789 495 
Q 369 1072 369 2131 
Q 369 3413 920 4167 
Q 1472 4922 2372 4922 
Q 2888 4922 3181 4781 
L 3181 4219 
z
M 1031 1584 
Q 1031 1106 1286 765 
Q 1541 425 1963 425 
Q 2363 425 2613 719 
Q 2863 1013 2863 1475 
Q 2863 1975 2627 2253 
Q 2391 2531 1956 2531 
Q 1544 2531 1287 2250 
Q 1031 1969 1031 1584 
z
" transform="scale(0.015625)"/>
       </defs>
       <use xlink:href="#MicrosoftYaHei-32"/>
       <use xlink:href="#MicrosoftYaHei-36" transform="translate(58.642578 0)"/>
       <use xlink:href="#MicrosoftYaHei-30" transform="translate(117.285156 0)"/>
      </g>
     </g>
    </g>
    <g id="xtick_7">
     <g id="line2d_13">
      <path d="M 516.656659 419.0725 
L 516.656659 22.7925 
" clip-path="url(#pd24ed6d945)" style="fill: none; stroke: #b0b0b0; stroke-opacity: 0.3; stroke-width: 0.8; stroke-linecap: square"/>
     </g>
     <g id="line2d_14">
      <g>
       <use xlink:href="#me800985d63" x="516.656659" y="419.0725" style="stroke: #000000; stroke-width: 0.8"/>
      </g>
     </g>
     <g id="text_7">
      <!-- 270 -->
      <g transform="translate(507.860565 434.06625) scale(0.1 -0.1)">
       <defs>
        <path id="MicrosoftYaHei-37" d="M 3422 4463 
Q 2659 3131 2223 1998 
Q 1788 866 1684 0 
L 1047 0 
Q 1163 853 1594 1947 
Q 2025 3041 2747 4300 
L 347 4300 
L 347 4841 
L 3422 4841 
L 3422 4463 
z
" transform="scale(0.015625)"/>
       </defs>
       <use xlink:href="#MicrosoftYaHei-32"/>
       <use xlink:href="#MicrosoftYaHei-37" transform="translate(58.642578 0)"/>
       <use xlink:href="#MicrosoftYaHei-30" transform="translate(117.285156 0)"/>
      </g>
     </g>
    </g>
    <g id="text_8">
     <!-- 总成本（元） -->
     <g transform="translate(275.871293 449.345312) scale(0.11 -0.11)">
      <defs>
       <path id="MicrosoftYaHei-603b" d="M 900 4253 
L 3631 4253 
Q 4022 4822 4331 5353 
L 4813 5103 
Q 4500 4675 4175 4253 
L 5500 4253 
L 5500 1703 
L 5000 1703 
L 5000 1978 
L 1400 1978 
L 1400 1703 
L 900 1703 
L 900 4253 
z
M 5000 3803 
L 1400 3803 
L 1400 2428 
L 5000 2428 
L 5000 3803 
z
M 1694 1378 
L 2181 1378 
L 2181 284 
Q 2181 -203 2619 -203 
L 3875 -203 
Q 4244 -203 4338 172 
Q 4394 366 4450 872 
Q 4631 791 4931 684 
Q 4850 209 4750 -97 
Q 4556 -641 3900 -641 
L 2519 -641 
Q 1694 -641 1694 197 
L 1694 1378 
z
M 719 1422 
L 1188 1272 
Q 931 491 538 -334 
Q 338 -247 81 -134 
Q 444 597 719 1422 
z
M 4881 1203 
L 5238 1478 
Q 5813 841 6319 197 
L 5900 -134 
Q 5456 491 4881 1203 
z
M 2663 1591 
L 3044 1841 
Q 3488 1372 3863 841 
L 3444 547 
Q 3069 1109 2663 1591 
z
M 1594 5109 
L 1975 5353 
Q 2350 4959 2650 4541 
L 2225 4266 
Q 1956 4653 1594 5109 
z
" transform="scale(0.015625)"/>
       <path id="MicrosoftYaHei-6210" d="M 2750 -347 
Q 3472 138 4038 781 
Q 3675 1703 3609 3759 
L 1250 3759 
L 1250 2809 
L 3050 2809 
Q 3013 1616 2950 803 
Q 2875 -59 2113 -59 
Q 1856 -59 1431 -34 
Q 1394 197 1331 484 
Q 1769 422 2063 422 
Q 2425 422 2469 922 
Q 2519 1497 2544 2347 
L 1247 2347 
Q 1197 175 369 -866 
Q 213 -653 44 -434 
Q 750 503 750 2528 
L 750 4222 
L 3591 4222 
Q 3569 4716 3550 5291 
L 4069 5291 
Q 4066 4850 4084 4222 
L 6238 4222 
L 6238 3759 
L 4100 3759 
Q 4163 2078 4409 1247 
Q 5016 2069 5406 3109 
L 5900 2903 
Q 5363 1631 4609 691 
Q 5069 -244 5506 -244 
Q 5666 -244 5750 47 
Q 5838 503 5888 984 
Q 6156 878 6363 809 
Q 6269 141 6156 -284 
Q 6038 -741 5631 -778 
Q 5250 -803 4900 -522 
Q 4522 -231 4256 278 
Q 3728 -291 3106 -722 
Q 2944 -534 2750 -347 
z
M 4544 4984 
L 4806 5309 
Q 5331 5009 5788 4684 
L 5488 4309 
Q 5038 4666 4544 4984 
z
" transform="scale(0.015625)"/>
       <path id="MicrosoftYaHei-672c" d="M 6281 803 
Q 6119 641 5856 366 
Q 4344 1531 3444 3353 
L 3444 878 
L 4875 878 
L 4875 441 
L 3444 441 
L 3444 -841 
L 2956 -841 
L 2956 441 
L 1475 441 
L 1475 878 
L 2956 878 
L 2956 3353 
Q 2159 1766 513 291 
Q 269 522 100 666 
Q 1878 2125 2759 3753 
L 238 3753 
L 238 4216 
L 2956 4216 
L 2956 5341 
L 3444 5341 
L 3444 4216 
L 6163 4216 
L 6163 3753 
L 3622 3753 
Q 4616 1884 6281 803 
z
" transform="scale(0.015625)"/>
       <path id="MicrosoftYaHei-ff08" d="M 5288 -1100 
Q 4172 119 4172 1850 
Q 4172 3603 5288 4838 
L 5825 4838 
Q 4716 3572 4716 1856 
Q 4716 166 5819 -1100 
L 5288 -1100 
z
" transform="scale(0.015625)"/>
       <path id="MicrosoftYaHei-5143" d="M 188 3084 
L 6225 3084 
L 6225 2609 
L 4250 2609 
L 4250 172 
Q 4250 -197 4625 -197 
L 5163 -197 
Q 5613 -197 5675 216 
Q 5731 566 5769 1103 
Q 6019 1016 6313 947 
Q 6250 409 6181 47 
Q 6056 -641 5275 -641 
L 4513 -641 
Q 3725 -641 3725 128 
L 3725 2609 
L 2450 2609 
L 2450 2409 
Q 2450 1084 2050 447 
Q 1650 -247 469 -847 
Q 244 -572 100 -428 
Q 1181 103 1556 691 
Q 1925 1253 1925 2384 
L 1925 2609 
L 188 2609 
L 188 3084 
z
M 788 4903 
L 5638 4903 
L 5638 4428 
L 788 4428 
L 788 4903 
z
" transform="scale(0.015625)"/>
       <path id="MicrosoftYaHei-ff09" d="M 1113 -1100 
L 575 -1100 
Q 1684 163 1684 1888 
Q 1684 3581 581 4838 
L 1113 4838 
Q 2222 3628 2222 1888 
Q 2222 128 1113 -1100 
z
" transform="scale(0.015625)"/>
      </defs>
      <use xlink:href="#MicrosoftYaHei-603b"/>
      <use xlink:href="#MicrosoftYaHei-6210" transform="translate(100 0)"/>
      <use xlink:href="#MicrosoftYaHei-672c" transform="translate(200 0)"/>
      <use xlink:href="#MicrosoftYaHei-ff08" transform="translate(300 0)"/>
      <use xlink:href="#MicrosoftYaHei-5143" transform="translate(400 0)"/>
      <use xlink:href="#MicrosoftYaHei-ff09" transform="translate(500 0)"/>
     </g>
    </g>
   </g>
   <g id="matplotlib.axis_2">
    <g id="ytick_1">
     <g id="line2d_15">
      <path d="M 49.727656 419.0725 
L 568.014929 419.0725 
" clip-path="url(#pd24ed6d945)" style="fill: none; stroke: #b0b0b0; stroke-opacity: 0.3; stroke-width: 0.8; stroke-linecap: square"/>
     </g>
     <g id="line2d_16">
      <defs>
       <path id="mbb5c75139a" d="M 0 0 
L -3.5 0 
" style="stroke: #000000; stroke-width: 0.8"/>
      </defs>
      <g>
       <use xlink:href="#mbb5c75139a" x="49.727656" y="419.0725" style="stroke: #000000; stroke-width: 0.8"/>
      </g>
     </g>
     <g id="text_9">
      <!-- 4.62 -->
      <g transform="translate(22.727656 423.069375) scale(0.1 -0.1)">
       <defs>
        <path id="MicrosoftYaHei-2e" d="M 372 322 
Q 372 491 487 606 
Q 603 722 775 722 
Q 950 722 1065 605 
Q 1181 488 1181 322 
Q 1181 159 1065 42 
Q 950 -75 772 -75 
Q 600 -75 486 42 
Q 372 159 372 322 
z
" transform="scale(0.015625)"/>
       </defs>
       <use xlink:href="#MicrosoftYaHei-34"/>
       <use xlink:href="#MicrosoftYaHei-2e" transform="translate(58.642578 0)"/>
       <use xlink:href="#MicrosoftYaHei-36" transform="translate(82.714844 0)"/>
       <use xlink:href="#MicrosoftYaHei-32" transform="translate(141.357422 0)"/>
      </g>
     </g>
    </g>
    <g id="ytick_2">
     <g id="line2d_17">
      <path d="M 49.727656 350.485577 
L 568.014929 350.485577 
" clip-path="url(#pd24ed6d945)" style="fill: none; stroke: #b0b0b0; stroke-opacity: 0.3; stroke-width: 0.8; stroke-linecap: square"/>
     </g>
     <g id="line2d_18">
      <g>
       <use xlink:href="#mbb5c75139a" x="49.727656" y="350.485577" style="stroke: #000000; stroke-width: 0.8"/>
      </g>
     </g>
     <g id="text_10">
      <!-- 4.64 -->
      <g transform="translate(22.727656 354.482452) scale(0.1 -0.1)">
       <use xlink:href="#MicrosoftYaHei-34"/>
       <use xlink:href="#MicrosoftYaHei-2e" transform="translate(58.642578 0)"/>
       <use xlink:href="#MicrosoftYaHei-36" transform="translate(82.714844 0)"/>
       <use xlink:href="#MicrosoftYaHei-34" transform="translate(141.357422 0)"/>
      </g>
     </g>
    </g>
    <g id="ytick_3">
     <g id="line2d_19">
      <path d="M 49.727656 281.898654 
L 568.014929 281.898654 
" clip-path="url(#pd24ed6d945)" style="fill: none; stroke: #b0b0b0; stroke-opacity: 0.3; stroke-width: 0.8; stroke-linecap: square"/>
     </g>
     <g id="line2d_20">
      <g>
       <use xlink:href="#mbb5c75139a" x="49.727656" y="281.898654" style="stroke: #000000; stroke-width: 0.8"/>
      </g>
     </g>
     <g id="text_11">
      <!-- 4.66 -->
      <g transform="translate(22.727656 285.895529) scale(0.1 -0.1)">
       <use xlink:href="#MicrosoftYaHei-34"/>
       <use xlink:href="#MicrosoftYaHei-2e" transform="translate(58.642578 0)"/>
       <use xlink:href="#MicrosoftYaHei-36" transform="translate(82.714844 0)"/>
       <use xlink:href="#MicrosoftYaHei-36" transform="translate(141.357422 0)"/>
      </g>
     </g>
    </g>
    <g id="ytick_4">
     <g id="line2d_21">
      <path d="M 49.727656 213.311731 
L 568.014929 213.311731 
" clip-path="url(#pd24ed6d945)" style="fill: none; stroke: #b0b0b0; stroke-opacity: 0.3; stroke-width: 0.8; stroke-linecap: square"/>
     </g>
     <g id="line2d_22">
      <g>
       <use xlink:href="#mbb5c75139a" x="49.727656" y="213.311731" style="stroke: #000000; stroke-width: 0.8"/>
      </g>
     </g>
     <g id="text_12">
      <!-- 4.68 -->
      <g transform="translate(22.727656 217.308606) scale(0.1 -0.1)">
       <defs>
        <path id="MicrosoftYaHei-38" d="M 306 1350 
Q 306 1769 556 2122 
Q 806 2475 1200 2625 
Q 884 2803 700 3081 
Q 516 3359 516 3684 
Q 516 4028 692 4312 
Q 869 4597 1183 4759 
Q 1497 4922 1875 4922 
Q 2256 4922 2572 4761 
Q 2888 4600 3063 4315 
Q 3238 4031 3238 3684 
Q 3238 3366 3058 3086 
Q 2878 2806 2559 2625 
Q 2953 2472 3200 2119 
Q 3447 1766 3447 1350 
Q 3447 938 3250 611 
Q 3053 284 2690 103 
Q 2328 -78 1875 -78 
Q 1425 -78 1065 103 
Q 706 284 506 612 
Q 306 941 306 1350 
z
M 906 1378 
Q 906 947 1172 687 
Q 1438 428 1878 428 
Q 2309 428 2582 692 
Q 2856 956 2856 1378 
Q 2856 1778 2579 2051 
Q 2303 2325 1878 2325 
Q 1456 2325 1181 2058 
Q 906 1791 906 1378 
z
M 1081 3634 
Q 1081 3309 1312 3076 
Q 1544 2844 1878 2844 
Q 2206 2844 2445 3078 
Q 2684 3313 2684 3634 
Q 2684 3963 2454 4191 
Q 2225 4419 1878 4419 
Q 1534 4419 1307 4195 
Q 1081 3972 1081 3634 
z
" transform="scale(0.015625)"/>
       </defs>
       <use xlink:href="#MicrosoftYaHei-34"/>
       <use xlink:href="#MicrosoftYaHei-2e" transform="translate(58.642578 0)"/>
       <use xlink:href="#MicrosoftYaHei-36" transform="translate(82.714844 0)"/>
       <use xlink:href="#MicrosoftYaHei-38" transform="translate(141.357422 0)"/>
      </g>
     </g>
    </g>
    <g id="ytick_5">
     <g id="line2d_23">
      <path d="M 49.727656 144.724808 
L 568.014929 144.724808 
" clip-path="url(#pd24ed6d945)" style="fill: none; stroke: #b0b0b0; stroke-opacity: 0.3; stroke-width: 0.8; stroke-linecap: square"/>
     </g>
     <g id="line2d_24">
      <g>
       <use xlink:href="#mbb5c75139a" x="49.727656" y="144.724808" style="stroke: #000000; stroke-width: 0.8"/>
      </g>
     </g>
     <g id="text_13">
      <!-- 4.70 -->
      <g transform="translate(22.727656 148.721683) scale(0.1 -0.1)">
       <use xlink:href="#MicrosoftYaHei-34"/>
       <use xlink:href="#MicrosoftYaHei-2e" transform="translate(58.642578 0)"/>
       <use xlink:href="#MicrosoftYaHei-37" transform="translate(82.714844 0)"/>
       <use xlink:href="#MicrosoftYaHei-30" transform="translate(141.357422 0)"/>
      </g>
     </g>
    </g>
    <g id="ytick_6">
     <g id="line2d_25">
      <path d="M 49.727656 76.137885 
L 568.014929 76.137885 
" clip-path="url(#pd24ed6d945)" style="fill: none; stroke: #b0b0b0; stroke-opacity: 0.3; stroke-width: 0.8; stroke-linecap: square"/>
     </g>
     <g id="line2d_26">
      <g>
       <use xlink:href="#mbb5c75139a" x="49.727656" y="76.137885" style="stroke: #000000; stroke-width: 0.8"/>
      </g>
     </g>
     <g id="text_14">
      <!-- 4.72 -->
      <g transform="translate(22.727656 80.13476) scale(0.1 -0.1)">
       <use xlink:href="#MicrosoftYaHei-34"/>
       <use xlink:href="#MicrosoftYaHei-2e" transform="translate(58.642578 0)"/>
       <use xlink:href="#MicrosoftYaHei-37" transform="translate(82.714844 0)"/>
       <use xlink:href="#MicrosoftYaHei-32" transform="translate(141.357422 0)"/>
      </g>
     </g>
    </g>
    <g id="text_15">
     <!-- 平均评分 -->
     <g transform="translate(15.993125 242.9325) rotate(-90) scale(0.11 -0.11)">
      <defs>
       <path id="MicrosoftYaHei-5e73" d="M 169 1934 
L 2938 1934 
L 2938 4547 
L 450 4547 
L 450 5028 
L 5975 5028 
L 5975 4547 
L 3463 4547 
L 3463 1934 
L 6250 1934 
L 6250 1453 
L 3463 1453 
L 3463 -847 
L 2938 -847 
L 2938 1453 
L 169 1453 
L 169 1934 
z
M 3950 2559 
Q 4638 3284 5188 4159 
L 5656 3859 
Q 4950 2891 4338 2234 
L 3950 2559 
z
M 769 3859 
L 1163 4134 
Q 1863 3316 2369 2553 
L 1925 2222 
Q 1444 3003 769 3859 
z
" transform="scale(0.015625)"/>
       <path id="MicrosoftYaHei-5747" d="M 2244 2803 
Q 2931 3953 3338 5322 
L 3838 5172 
Q 3691 4744 3531 4347 
L 6013 4347 
Q 5925 1053 5875 297 
Q 5831 -697 4806 -697 
Q 4188 -697 3706 -672 
Q 3669 -422 3606 -141 
L 3625 -141 
Q 4250 -209 4775 -209 
Q 5350 -209 5394 378 
Q 5456 1447 5513 3891 
L 3341 3891 
Q 3028 3172 2675 2572 
Q 2481 2691 2244 2803 
z
M 81 428 
Q 559 600 1006 769 
L 1006 3253 
L 169 3253 
L 169 3697 
L 1006 3697 
L 1006 5259 
L 1469 5259 
L 1469 3697 
L 2281 3697 
L 2281 3253 
L 1469 3253 
L 1469 947 
Q 1922 1125 2338 1303 
Q 2350 991 2369 784 
Q 1363 403 250 -53 
L 81 428 
z
M 2513 853 
Q 3769 1353 5119 1934 
Q 5150 1641 5188 1434 
Q 4031 947 2706 359 
L 2513 853 
z
M 3138 2909 
L 3481 3216 
Q 4025 2716 4531 2216 
L 4125 1859 
Q 3644 2409 3138 2909 
z
" transform="scale(0.015625)"/>
       <path id="MicrosoftYaHei-8bc4" d="M 1750 2028 
L 3775 2028 
L 3775 4447 
L 2088 4447 
L 2088 4916 
L 5975 4916 
L 5975 4447 
L 4281 4447 
L 4281 2028 
L 6319 2028 
L 6319 1553 
L 4281 1553 
L 4281 -797 
L 3775 -797 
L 3775 1553 
L 1750 1553 
L 1750 2028 
z
M 2219 866 
Q 2238 553 2263 328 
Q 1456 -228 963 -628 
L 669 -209 
Q 881 -28 881 303 
L 881 2716 
L 100 2716 
L 100 3166 
L 1363 3166 
L 1363 241 
Q 1775 534 2219 866 
z
M 4725 2697 
Q 5175 3309 5563 4028 
L 6019 3753 
Q 5613 3091 5125 2403 
L 4725 2697 
z
M 2056 3791 
L 2450 4028 
Q 2919 3353 3288 2716 
L 2850 2434 
Q 2431 3209 2056 3791 
z
M 738 5222 
Q 1419 4522 1725 4184 
L 1288 3816 
Q 894 4334 356 4891 
L 738 5222 
z
" transform="scale(0.015625)"/>
       <path id="MicrosoftYaHei-5206" d="M 900 2559 
L 5056 2559 
Q 5025 1497 4963 484 
Q 4888 -684 3856 -678 
Q 3350 -684 2788 -647 
Q 2750 -384 2700 -116 
Q 3181 -184 3775 -191 
Q 4400 -203 4463 541 
Q 4513 1216 4538 2097 
L 2616 2097 
Q 2541 1053 2181 416 
Q 1706 -422 588 -878 
Q 425 -666 231 -459 
Q 1269 -72 1725 666 
Q 2053 1225 2103 2097 
L 900 2097 
L 900 2559 
z
M 3488 5159 
L 3938 5353 
Q 4625 3678 6350 2847 
Q 6069 2553 5944 2372 
Q 4225 3366 3488 5159 
z
M 50 2766 
Q 1338 3678 2250 5253 
L 2694 5009 
Q 1744 3347 413 2341 
Q 281 2534 50 2766 
z
" transform="scale(0.015625)"/>
      </defs>
      <use xlink:href="#MicrosoftYaHei-5e73"/>
      <use xlink:href="#MicrosoftYaHei-5747" transform="translate(100 0)"/>
      <use xlink:href="#MicrosoftYaHei-8bc4" transform="translate(200 0)"/>
      <use xlink:href="#MicrosoftYaHei-5206" transform="translate(300 0)"/>
     </g>
    </g>
   </g>
   <g id="patch_3">
    <path d="M 49.727656 419.0725 
L 49.727656 22.7925 
" style="fill: none; stroke: #000000; stroke-width: 0.8; stroke-linejoin: miter; stroke-linecap: square"/>
   </g>
   <g id="patch_4">
    <path d="M 568.014929 419.0725 
L 568.014929 22.7925 
" style="fill: none; stroke: #000000; stroke-width: 0.8; stroke-linejoin: miter; stroke-linecap: square"/>
   </g>
   <g id="patch_5">
    <path d="M 49.727656 419.0725 
L 568.014929 419.0725 
" style="fill: none; stroke: #000000; stroke-width: 0.8; stroke-linejoin: miter; stroke-linecap: square"/>
   </g>
   <g id="patch_6">
    <path d="M 49.727656 22.7925 
L 568.014929 22.7925 
" style="fill: none; stroke: #000000; stroke-width: 0.8; stroke-linejoin: miter; stroke-linecap: square"/>
   </g>
   <g id="patch_7">
    <path d="M 82.828398 375.41458 
Q 79.033405 374.592645 76.877461 374.125701 
" style="fill: none; stroke: #43a047; stroke-width: 1.5; stroke-linecap: round"/>
    <path d="M 80.363467 376.927086 
L 76.877461 374.125701 
L 81.210173 373.017727 
" style="fill: none; stroke: #43a047; stroke-width: 1.5; stroke-linecap: round"/>
   </g>
   <g id="text_16">
    <g id="patch_8">
     <path d="M 88.286169 398.833822 
L 161.773669 398.833822 
Q 164.773669 398.833822 164.773669 395.833822 
L 164.773669 373.275697 
Q 164.773669 370.275697 161.773669 370.275697 
L 88.286169 370.275697 
Q 85.286169 370.275697 85.286169 373.275697 
L 85.286169 395.833822 
Q 85.286169 398.833822 88.286169 398.833822 
z
" style="fill: #ffffff; opacity: 0.85; stroke: #000000; stroke-linejoin: miter"/>
    </g>
    <!-- 省钱型 -->
    <g style="fill: #43a047" transform="translate(88.286169 381.269447) scale(0.1 -0.1)">
     <defs>
      <path id="MicrosoftYaHei-Bold-7701" d="M 1013 -847 
L 1013 2259 
Q 684 2181 350 2109 
Q 213 2503 44 2847 
Q 2000 3166 3513 3716 
L 2756 3716 
L 2756 5334 
L 3644 5334 
L 3644 3763 
Q 4197 3969 4688 4206 
L 4231 4478 
L 4669 5097 
Q 5556 4628 6369 4128 
L 5900 3441 
Q 5363 3800 4750 4169 
L 5156 3534 
Q 4206 3169 3181 2853 
L 5681 2853 
L 5681 -847 
L 4831 -847 
L 4831 -528 
L 1863 -528 
L 1863 -847 
L 1013 -847 
z
M 4831 2228 
L 1863 2228 
L 1863 1841 
L 4831 1841 
L 4831 2228 
z
M 1863 966 
L 4831 966 
L 4831 1353 
L 1863 1353 
L 1863 966 
z
M 1863 84 
L 4831 84 
L 4831 478 
L 1863 478 
L 1863 84 
z
M 1881 5097 
L 2394 4466 
Q 1556 3891 663 3341 
L 225 4022 
Q 1106 4516 1881 5097 
z
" transform="scale(0.015625)"/>
      <path id="MicrosoftYaHei-Bold-94b1" d="M 2513 3809 
L 1166 3809 
Q 1072 3594 972 3391 
L 2375 3391 
L 2375 2684 
L 1694 2684 
L 1694 2041 
L 2488 2041 
L 2488 1334 
L 1694 1334 
L 1694 466 
Q 2081 678 2513 928 
Q 2563 522 2656 159 
Q 1463 -559 1175 -841 
L 694 -234 
Q 881 -3 881 341 
L 881 1334 
L 150 1334 
L 150 2041 
L 881 2041 
L 881 2684 
L 578 2684 
Q 456 2488 325 2303 
Q 213 2816 81 3303 
Q 588 4228 831 5347 
L 1631 5147 
Q 1541 4822 1434 4516 
L 2513 4516 
L 2513 3809 
z
M 2575 2547 
L 3416 2653 
Q 3391 2934 3372 3238 
L 2694 3159 
L 2569 3922 
L 3334 4006 
L 3263 5322 
L 4106 5322 
Q 4119 4759 4150 4097 
L 5000 4191 
Q 4616 4597 4288 4897 
L 4750 5334 
Q 5119 5047 5588 4603 
L 5156 4206 
L 5975 4297 
L 6056 3547 
L 4194 3331 
L 4241 2756 
L 6069 2991 
L 6156 2241 
L 4338 2003 
Q 4409 1566 4506 1222 
Q 4947 1625 5344 2109 
L 6000 1641 
Q 5422 947 4838 428 
Q 5084 53 5294 53 
Q 5406 53 5448 154 
Q 5491 256 5650 1022 
Q 5988 847 6325 684 
Q 6119 -281 5926 -557 
Q 5734 -834 5369 -834 
Q 4606 -834 4150 -103 
Q 3541 -513 2700 -897 
Q 2494 -553 2213 -184 
Q 3103 178 3797 656 
Q 3622 1184 3509 1894 
L 2700 1791 
L 2575 2547 
z
" transform="scale(0.015625)"/>
      <path id="MicrosoftYaHei-Bold-578b" d="M 5963 5216 
L 5963 2547 
Q 5963 2141 5752 1928 
Q 5541 1716 5095 1700 
Q 4650 1684 4269 1684 
Q 4231 2059 4150 2447 
Q 4469 2428 4813 2428 
Q 5150 2428 5150 2709 
L 5150 5216 
L 5963 5216 
z
M 150 3491 
L 891 3491 
Q 900 3616 900 4341 
L 325 4341 
L 325 5066 
L 3625 5066 
L 3625 4341 
L 3113 4341 
L 3113 3491 
L 3750 3491 
L 3750 2766 
L 3113 2766 
L 3113 2091 
L 3656 2091 
L 3656 1441 
L 5781 1441 
L 5781 678 
L 3656 678 
L 3656 103 
L 6294 103 
L 6294 -647 
L 138 -647 
L 138 103 
L 2763 103 
L 2763 678 
L 650 678 
L 650 1441 
L 2763 1441 
L 2763 1766 
L 2350 1766 
L 2350 2766 
L 1559 2766 
Q 1375 2016 888 1522 
Q 675 1697 275 2009 
Q 584 2334 741 2766 
L 150 2766 
L 150 3491 
z
M 1663 3491 
L 2350 3491 
L 2350 4341 
L 1669 4341 
Q 1669 3753 1663 3491 
z
M 3900 4866 
L 4650 4866 
L 4650 2753 
L 3900 2753 
L 3900 4866 
z
" transform="scale(0.015625)"/>
     </defs>
     <use xlink:href="#MicrosoftYaHei-Bold-7701"/>
     <use xlink:href="#MicrosoftYaHei-Bold-94b1" transform="translate(100 0)"/>
     <use xlink:href="#MicrosoftYaHei-Bold-578b" transform="translate(200 0)"/>
    </g>
    <!-- (208元, 4.63分) -->
    <g style="fill: #43a047" transform="translate(88.286169 393.347885) scale(0.1 -0.1)">
     <defs>
      <path id="MicrosoftYaHei-Bold-28" d="M 1606 -1100 
Q 525 97 525 1853 
Q 525 3550 1606 4841 
L 2431 4841 
Q 1406 3497 1406 1853 
Q 1406 216 2438 -1100 
L 1606 -1100 
z
" transform="scale(0.015625)"/>
      <path id="MicrosoftYaHei-Bold-32" d="M 1500 841 
L 3553 841 
L 3553 0 
L 334 0 
L 334 359 
Q 334 738 473 1050 
Q 613 1363 856 1633 
Q 1100 1903 1613 2266 
Q 2081 2616 2268 2886 
Q 2456 3156 2456 3459 
Q 2456 4113 1744 4113 
Q 1119 4113 550 3613 
L 550 4513 
Q 1184 4922 1975 4922 
Q 2700 4922 3122 4551 
Q 3544 4181 3544 3531 
Q 3544 3169 3422 2876 
Q 3300 2584 3069 2328 
Q 2838 2072 2328 1713 
Q 1838 1363 1669 1172 
Q 1500 981 1500 841 
z
" transform="scale(0.015625)"/>
      <path id="MicrosoftYaHei-Bold-30" d="M 244 2341 
Q 244 3597 706 4259 
Q 1169 4922 2044 4922 
Q 3713 4922 3713 2453 
Q 3713 1238 3259 577 
Q 2806 -84 1950 -84 
Q 244 -84 244 2341 
z
M 1266 2366 
Q 1266 691 1981 691 
Q 2684 691 2684 2416 
Q 2684 4147 2000 4147 
Q 1266 4147 1266 2366 
z
" transform="scale(0.015625)"/>
      <path id="MicrosoftYaHei-Bold-38" d="M 269 1303 
Q 269 1725 512 2053 
Q 756 2381 1219 2534 
Q 850 2719 648 3003 
Q 447 3288 447 3634 
Q 447 3997 645 4292 
Q 844 4588 1200 4755 
Q 1556 4922 1997 4922 
Q 2441 4922 2800 4758 
Q 3159 4594 3359 4298 
Q 3559 4003 3559 3647 
Q 3559 3309 3339 3018 
Q 3119 2728 2747 2559 
Q 3200 2403 3453 2076 
Q 3706 1750 3706 1313 
Q 3706 697 3228 309 
Q 2750 -78 1988 -78 
Q 1225 -78 747 309 
Q 269 697 269 1303 
z
M 1278 1394 
Q 1278 1056 1472 853 
Q 1666 650 1991 650 
Q 2303 650 2503 853 
Q 2703 1056 2703 1394 
Q 2703 1709 2500 1920 
Q 2297 2131 1991 2131 
Q 1675 2131 1476 1920 
Q 1278 1709 1278 1394 
z
M 1428 3531 
Q 1428 3266 1592 3077 
Q 1756 2888 2006 2888 
Q 2247 2888 2415 3072 
Q 2584 3256 2584 3531 
Q 2584 3806 2420 3997 
Q 2256 4188 2006 4188 
Q 1750 4188 1589 3997 
Q 1428 3806 1428 3531 
z
" transform="scale(0.015625)"/>
      <path id="MicrosoftYaHei-Bold-5143" d="M 675 4953 
L 5725 4953 
L 5725 4103 
L 675 4103 
L 675 4953 
z
M 5425 1178 
Q 6006 959 6300 866 
Q 6181 269 6073 -103 
Q 5966 -475 5708 -614 
Q 5450 -753 5081 -747 
L 4475 -747 
Q 3481 -747 3481 197 
L 3481 2266 
L 2584 2266 
Q 2494 19 750 -847 
Q 513 -566 88 -109 
Q 1619 609 1694 2266 
L 163 2266 
L 163 3128 
L 6238 3128 
L 6238 2266 
L 4388 2266 
L 4388 509 
Q 4388 59 4769 59 
L 4975 59 
Q 5166 59 5247 217 
Q 5328 375 5425 1178 
z
" transform="scale(0.015625)"/>
      <path id="MicrosoftYaHei-Bold-2c" d="M 1419 841 
L 916 -859 
L 134 -859 
L 484 841 
L 1419 841 
z
" transform="scale(0.015625)"/>
      <path id="MicrosoftYaHei-Bold-20" transform="scale(0.015625)"/>
      <path id="MicrosoftYaHei-Bold-34" d="M 3184 4841 
L 3184 1766 
L 3869 1766 
L 3869 1031 
L 3184 1031 
L 3184 0 
L 2266 0 
L 2266 1031 
L 103 1031 
L 103 1772 
Q 775 2522 1362 3359 
Q 1950 4197 2250 4841 
L 3184 4841 
z
M 997 1766 
L 2266 1766 
L 2266 3541 
Q 2116 3259 1836 2859 
Q 1556 2459 997 1766 
z
" transform="scale(0.015625)"/>
      <path id="MicrosoftYaHei-Bold-2e" d="M 313 453 
Q 313 688 491 838 
Q 669 988 916 988 
Q 1166 988 1337 834 
Q 1509 681 1509 453 
Q 1509 213 1337 64 
Q 1166 -84 903 -84 
Q 659 -84 486 69 
Q 313 222 313 453 
z
" transform="scale(0.015625)"/>
      <path id="MicrosoftYaHei-Bold-36" d="M 3378 3938 
Q 3009 4147 2575 4147 
Q 2016 4147 1680 3708 
Q 1344 3269 1344 2572 
L 1363 2572 
Q 1709 3103 2391 3103 
Q 3000 3103 3358 2686 
Q 3716 2269 3716 1600 
Q 3716 869 3250 392 
Q 2784 -84 2059 -84 
Q 1228 -84 786 516 
Q 344 1116 344 2159 
Q 344 3388 917 4155 
Q 1491 4922 2513 4922 
Q 3063 4922 3378 4791 
L 3378 3938 
z
M 1378 1591 
Q 1378 1216 1565 953 
Q 1753 691 2059 691 
Q 2369 691 2547 931 
Q 2725 1172 2725 1534 
Q 2725 2350 2053 2350 
Q 1750 2350 1564 2134 
Q 1378 1919 1378 1591 
z
" transform="scale(0.015625)"/>
      <path id="MicrosoftYaHei-Bold-33" d="M 494 1053 
Q 978 691 1625 691 
Q 2034 691 2275 872 
Q 2516 1053 2516 1388 
Q 2516 1731 2230 1912 
Q 1944 2094 1428 2094 
L 997 2094 
L 997 2872 
L 1394 2872 
Q 2369 2872 2369 3528 
Q 2369 4147 1622 4147 
Q 1134 4147 675 3828 
L 675 4663 
Q 1175 4922 1853 4922 
Q 2541 4922 2969 4605 
Q 3397 4288 3397 3725 
Q 3397 2775 2434 2531 
L 2434 2516 
Q 2941 2459 3244 2145 
Q 3547 1831 3547 1381 
Q 3547 691 3042 303 
Q 2538 -84 1697 -84 
Q 950 -84 494 163 
L 494 1053 
z
" transform="scale(0.015625)"/>
      <path id="MicrosoftYaHei-Bold-5206" d="M 6350 3028 
Q 6088 2703 5750 2228 
Q 5519 2409 5303 2603 
Q 5219 606 5172 190 
Q 5125 -225 4862 -451 
Q 4600 -678 4128 -678 
Q 3484 -678 2913 -659 
Q 2856 -141 2781 284 
Q 3594 216 3956 216 
Q 4172 216 4230 408 
Q 4288 600 4325 1978 
L 2781 1978 
Q 2728 1100 2529 631 
Q 2331 163 1907 -215 
Q 1484 -594 844 -872 
Q 456 -353 194 -78 
Q 750 144 1111 414 
Q 1472 684 1630 989 
Q 1788 1294 1841 1978 
L 950 1978 
L 950 2475 
Q 794 2356 631 2247 
Q 344 2653 63 2953 
Q 1475 3947 2194 5316 
L 3031 4953 
Q 2378 3722 1391 2841 
L 5047 2841 
Q 4088 3766 3463 4903 
L 4238 5303 
Q 5038 3922 6350 3028 
z
" transform="scale(0.015625)"/>
      <path id="MicrosoftYaHei-Bold-29" d="M 59 -1100 
Q 1097 216 1097 1853 
Q 1097 3484 59 4841 
L 888 4841 
Q 1978 3544 1978 1853 
Q 1978 113 881 -1100 
L 59 -1100 
z
" transform="scale(0.015625)"/>
     </defs>
     <use xlink:href="#MicrosoftYaHei-Bold-28"/>
     <use xlink:href="#MicrosoftYaHei-Bold-32" transform="translate(38.964844 0)"/>
     <use xlink:href="#MicrosoftYaHei-Bold-30" transform="translate(100.634766 0)"/>
     <use xlink:href="#MicrosoftYaHei-Bold-38" transform="translate(162.304688 0)"/>
     <use xlink:href="#MicrosoftYaHei-Bold-5143" transform="translate(223.974609 0)"/>
     <use xlink:href="#MicrosoftYaHei-Bold-2c" transform="translate(323.974609 0)"/>
     <use xlink:href="#MicrosoftYaHei-Bold-20" transform="translate(352.539062 0)"/>
     <use xlink:href="#MicrosoftYaHei-Bold-34" transform="translate(382.324219 0)"/>
     <use xlink:href="#MicrosoftYaHei-Bold-2e" transform="translate(443.994141 0)"/>
     <use xlink:href="#MicrosoftYaHei-Bold-36" transform="translate(472.558594 0)"/>
     <use xlink:href="#MicrosoftYaHei-Bold-33" transform="translate(534.228516 0)"/>
     <use xlink:href="#MicrosoftYaHei-Bold-5206" transform="translate(595.898438 0)"/>
     <use xlink:href="#MicrosoftYaHei-Bold-29" transform="translate(695.898438 0)"/>
    </g>
   </g>
   <g id="patch_9">
    <path d="M 198.429298 178.799777 
Q 193.823981 180.47241 190.794968 181.572536 
" style="fill: none; stroke: #1e88e5; stroke-width: 1.5; stroke-linecap: round"/>
    <path d="M 195.237428 182.086878 
L 190.794968 181.572536 
L 193.871918 178.327173 
" style="fill: none; stroke: #1e88e5; stroke-width: 1.5; stroke-linecap: round"/>
   </g>
   <g id="text_17">
    <g id="patch_10">
     <path d="M 202.336456 178.314591 
L 275.823956 178.314591 
Q 278.823956 178.314591 278.823956 175.314591 
L 278.823956 152.756466 
Q 278.823956 149.756466 275.823956 149.756466 
L 202.336456 149.756466 
Q 199.336456 149.756466 199.336456 152.756466 
L 199.336456 175.314591 
Q 199.336456 178.314591 202.336456 178.314591 
z
" style="fill: #ffffff; opacity: 0.85; stroke: #000000; stroke-linejoin: miter"/>
    </g>
    <!-- 均衡型 -->
    <g style="fill: #1e88e5" transform="translate(202.336456 160.750216) scale(0.1 -0.1)">
     <defs>
      <path id="MicrosoftYaHei-Bold-5747" d="M 250 -397 
L 88 547 
Q 425 628 794 725 
L 794 2847 
L 213 2847 
L 213 3703 
L 794 3703 
L 794 5322 
L 1638 5322 
L 1638 3703 
L 2156 3703 
L 2156 3269 
Q 2794 4313 3075 5366 
L 3925 5266 
Q 3809 4866 3669 4491 
L 6069 4491 
L 6016 1816 
L 5966 303 
Q 5944 -194 5730 -450 
Q 5516 -706 5167 -745 
Q 4819 -784 3775 -797 
Q 3700 -397 3556 153 
Q 4178 103 4625 103 
Q 4819 103 4955 208 
Q 5091 313 5105 575 
Q 5119 838 5141 1619 
L 5181 3703 
L 3341 3703 
Q 3059 3088 2706 2541 
Q 2463 2763 2156 3003 
L 2156 2847 
L 1638 2847 
L 1638 959 
L 2288 1153 
Q 2275 878 2269 253 
Q 963 -134 250 -397 
z
M 3556 3353 
Q 4106 2922 4588 2466 
L 4006 1891 
Q 3500 2403 3019 2822 
L 3556 3353 
z
M 2719 209 
L 2500 1128 
Q 3650 1534 4938 2059 
Q 4956 1566 5000 1153 
Q 3894 728 2719 209 
z
" transform="scale(0.015625)"/>
      <path id="MicrosoftYaHei-Bold-8861" d="M 4150 4853 
L 4150 4284 
L 3866 3878 
L 4419 3878 
L 4419 1534 
L 3506 1534 
Q 3503 1384 3494 1247 
L 4638 1247 
L 4638 634 
L 3434 634 
L 4369 34 
L 4288 -72 
Q 4719 -97 4894 -97 
Q 5169 -97 5169 234 
L 5169 2416 
L 4625 2416 
L 4625 3178 
L 6306 3178 
L 6306 2416 
L 5950 2416 
L 5950 84 
Q 5950 -328 5792 -537 
Q 5634 -747 5343 -759 
Q 5053 -772 4444 -766 
Q 4381 -478 4281 -78 
L 3913 -566 
Q 3841 -484 3144 91 
Q 2675 -497 1875 -834 
Q 1756 -597 1469 -116 
Q 2325 166 2597 634 
L 1650 634 
L 1650 1247 
L 2775 1247 
Q 2791 1381 2794 1534 
L 1850 1534 
L 1850 3638 
Q 1703 3747 1550 3853 
Q 2144 4553 2519 5328 
L 3213 5228 
L 3016 4853 
L 4150 4853 
z
M 2416 3878 
L 3128 3878 
L 3419 4291 
L 2688 4291 
Q 2553 4075 2416 3878 
z
M 3806 3347 
L 3406 3347 
L 3406 2934 
L 3806 2934 
L 3806 3347 
z
M 2469 2934 
L 2869 2934 
L 2869 3347 
L 2469 3347 
L 2469 2934 
z
M 2469 2072 
L 2869 2072 
L 2869 2478 
L 2469 2478 
L 2469 2072 
z
M 3806 2072 
L 3806 2478 
L 3406 2478 
L 3406 2072 
L 3806 2072 
z
M 1213 5316 
L 1850 4847 
Q 1238 4016 513 3203 
Q 288 3572 38 3916 
Q 669 4522 1213 5316 
z
M 4713 4947 
L 6219 4947 
L 6219 4184 
L 4713 4184 
L 4713 4947 
z
M 1244 3603 
L 1844 3172 
Q 1603 2769 1356 2400 
L 1356 -834 
L 663 -834 
L 663 1456 
Q 484 1238 306 1034 
Q 213 1378 19 1872 
Q 663 2609 1244 3603 
z
" transform="scale(0.015625)"/>
     </defs>
     <use xlink:href="#MicrosoftYaHei-Bold-5747"/>
     <use xlink:href="#MicrosoftYaHei-Bold-8861" transform="translate(100 0)"/>
     <use xlink:href="#MicrosoftYaHei-Bold-578b" transform="translate(200 0)"/>
    </g>
    <!-- (224元, 4.69分) -->
    <g style="fill: #1e88e5" transform="translate(202.336456 172.828654) scale(0.1 -0.1)">
     <defs>
      <path id="MicrosoftYaHei-Bold-39" d="M 544 941 
Q 931 691 1456 691 
Q 2628 691 2653 2216 
L 2634 2222 
Q 2316 1731 1650 1731 
Q 1047 1731 658 2154 
Q 269 2578 269 3222 
Q 269 3978 737 4450 
Q 1206 4922 1959 4922 
Q 2744 4922 3191 4325 
Q 3638 3728 3638 2659 
Q 3638 1391 3098 653 
Q 2559 -84 1547 -84 
Q 975 -84 544 100 
L 544 941 
z
M 1259 3313 
Q 1259 2928 1445 2709 
Q 1631 2491 1953 2491 
Q 2241 2491 2427 2700 
Q 2613 2909 2613 3219 
Q 2613 3591 2427 3869 
Q 2241 4147 1928 4147 
Q 1625 4147 1442 3906 
Q 1259 3666 1259 3313 
z
" transform="scale(0.015625)"/>
     </defs>
     <use xlink:href="#MicrosoftYaHei-Bold-28"/>
     <use xlink:href="#MicrosoftYaHei-Bold-32" transform="translate(38.964844 0)"/>
     <use xlink:href="#MicrosoftYaHei-Bold-32" transform="translate(100.634766 0)"/>
     <use xlink:href="#MicrosoftYaHei-Bold-34" transform="translate(162.304688 0)"/>
     <use xlink:href="#MicrosoftYaHei-Bold-5143" transform="translate(223.974609 0)"/>
     <use xlink:href="#MicrosoftYaHei-Bold-2c" transform="translate(323.974609 0)"/>
     <use xlink:href="#MicrosoftYaHei-Bold-20" transform="translate(352.539062 0)"/>
     <use xlink:href="#MicrosoftYaHei-Bold-34" transform="translate(382.324219 0)"/>
     <use xlink:href="#MicrosoftYaHei-Bold-2e" transform="translate(443.994141 0)"/>
     <use xlink:href="#MicrosoftYaHei-Bold-36" transform="translate(472.558594 0)"/>
     <use xlink:href="#MicrosoftYaHei-Bold-39" transform="translate(534.228516 0)"/>
     <use xlink:href="#MicrosoftYaHei-Bold-5206" transform="translate(595.898438 0)"/>
     <use xlink:href="#MicrosoftYaHei-Bold-29" transform="translate(695.898438 0)"/>
    </g>
   </g>
   <g id="patch_11">
    <path d="M 555.549259 64.488239 
Q 550.943942 66.160872 547.914929 67.260997 
" style="fill: none; stroke: #e53935; stroke-width: 1.5; stroke-linecap: round"/>
    <path d="M 552.357389 67.77534 
L 547.914929 67.260997 
L 550.991879 64.015635 
" style="fill: none; stroke: #e53935; stroke-width: 1.5; stroke-linecap: round"/>
   </g>
   <g id="text_18">
    <g id="patch_12">
     <path d="M 559.456417 64.003053 
L 632.943917 64.003053 
Q 635.943917 64.003053 635.943917 61.003053 
L 635.943917 38.444928 
Q 635.943917 35.444928 632.943917 35.444928 
L 559.456417 35.444928 
Q 556.456417 35.444928 556.456417 38.444928 
L 556.456417 61.003053 
Q 556.456417 64.003053 559.456417 64.003053 
z
" style="fill: #ffffff; opacity: 0.85; stroke: #000000; stroke-linejoin: miter"/>
    </g>
    <!-- 体验型 -->
    <g style="fill: #e53935" transform="translate(559.456417 46.438678) scale(0.1 -0.1)">
     <defs>
      <path id="MicrosoftYaHei-Bold-4f53" d="M 1100 5309 
L 1906 5103 
Q 1697 4303 1450 3613 
L 1450 1072 
Q 2450 2116 2934 3516 
L 1806 3516 
L 1806 4297 
L 3438 4297 
L 3438 5309 
L 4263 5309 
L 4263 4297 
L 6063 4297 
L 6063 3516 
L 4716 3516 
Q 5191 2188 6313 1166 
Q 6044 759 5769 278 
Q 5519 538 5300 853 
L 5300 209 
L 4263 209 
L 4263 -841 
L 3438 -841 
L 3438 209 
L 2431 209 
L 2431 878 
Q 2191 519 1906 191 
Q 1722 491 1450 900 
L 1450 -828 
L 700 -828 
L 700 1922 
Q 500 1563 288 1253 
Q 213 1822 88 2434 
Q 581 3359 1100 5309 
z
M 2509 997 
L 3438 997 
L 3438 3163 
Q 3138 1972 2509 997 
z
M 4263 3128 
L 4263 997 
L 5203 997 
Q 4634 1866 4263 3128 
z
" transform="scale(0.015625)"/>
      <path id="MicrosoftYaHei-Bold-9a8c" d="M 1138 4053 
L 969 2491 
L 1419 2491 
L 1563 4241 
L 200 4241 
L 200 4991 
L 2369 4991 
L 2163 2491 
L 2525 2491 
Q 2463 691 2413 203 
Q 2369 -553 1838 -672 
Q 1581 -709 644 -709 
Q 588 -253 519 134 
Q 906 91 1350 78 
Q 1669 78 1694 378 
Q 1731 791 1763 1741 
L 181 1741 
L 400 4053 
L 1138 4053 
z
M 5544 2647 
L 3163 2647 
L 3163 2997 
Q 2944 2797 2706 2603 
Q 2525 2991 2300 3391 
Q 3313 4134 3925 5278 
L 4875 5278 
L 4738 5053 
Q 5469 3984 6381 3466 
Q 6163 3116 5950 2691 
Q 5738 2828 5544 2984 
L 5544 2647 
z
M 2556 116 
L 4694 116 
Q 5063 1253 5250 2303 
L 6025 2103 
Q 5775 1141 5438 116 
L 6213 116 
L 6213 -634 
L 2556 -634 
L 2556 116 
z
M 3263 2172 
Q 3569 1397 3856 503 
L 3175 259 
Q 2981 978 2625 1934 
L 3263 2172 
z
M 4425 2428 
Q 4644 1584 4806 753 
L 4113 584 
Q 3988 1366 3763 2278 
L 4425 2428 
z
M 75 1216 
Q 763 1278 1525 1378 
Q 1531 984 1538 628 
Q 838 541 175 428 
L 75 1216 
z
M 4300 4347 
Q 4013 3897 3544 3384 
L 5113 3384 
Q 4663 3859 4300 4347 
z
" transform="scale(0.015625)"/>
     </defs>
     <use xlink:href="#MicrosoftYaHei-Bold-4f53"/>
     <use xlink:href="#MicrosoftYaHei-Bold-9a8c" transform="translate(100 0)"/>
     <use xlink:href="#MicrosoftYaHei-Bold-578b" transform="translate(200 0)"/>
    </g>
    <!-- (274元, 4.72分) -->
    <g style="fill: #e53935" transform="translate(559.456417 58.517115) scale(0.1 -0.1)">
     <defs>
      <path id="MicrosoftYaHei-Bold-37" d="M 3675 4225 
Q 3088 3172 2798 2528 
Q 2509 1884 2328 1275 
Q 2147 666 2050 0 
L 966 0 
Q 1122 947 1517 1917 
Q 1913 2888 2609 4009 
L 300 4009 
L 300 4841 
L 3675 4841 
L 3675 4225 
z
" transform="scale(0.015625)"/>
     </defs>
     <use xlink:href="#MicrosoftYaHei-Bold-28"/>
     <use xlink:href="#MicrosoftYaHei-Bold-32" transform="translate(38.964844 0)"/>
     <use xlink:href="#MicrosoftYaHei-Bold-37" transform="translate(100.634766 0)"/>
     <use xlink:href="#MicrosoftYaHei-Bold-34" transform="translate(162.304688 0)"/>
     <use xlink:href="#MicrosoftYaHei-Bold-5143" transform="translate(223.974609 0)"/>
     <use xlink:href="#MicrosoftYaHei-Bold-2c" transform="translate(323.974609 0)"/>
     <use xlink:href="#MicrosoftYaHei-Bold-20" transform="translate(352.539062 0)"/>
     <use xlink:href="#MicrosoftYaHei-Bold-34" transform="translate(382.324219 0)"/>
     <use xlink:href="#MicrosoftYaHei-Bold-2e" transform="translate(443.994141 0)"/>
     <use xlink:href="#MicrosoftYaHei-Bold-37" transform="translate(472.558594 0)"/>
     <use xlink:href="#MicrosoftYaHei-Bold-32" transform="translate(534.228516 0)"/>
     <use xlink:href="#MicrosoftYaHei-Bold-5206" transform="translate(595.898438 0)"/>
     <use xlink:href="#MicrosoftYaHei-Bold-29" transform="translate(695.898438 0)"/>
    </g>
   </g>
   <g id="text_19">
    <!-- NSGA-II Pareto 前沿散点图 -->
    <g transform="translate(231.204105 16.7925) scale(0.12 -0.12)">
     <defs>
      <path id="MicrosoftYaHei-Bold-4e" d="M 4863 0 
L 3806 0 
L 1756 3131 
Q 1597 3375 1525 3525 
L 1509 3525 
Q 1538 3275 1538 2753 
L 1538 0 
L 559 0 
L 559 4841 
L 1684 4841 
L 3659 1797 
Q 3856 1494 3900 1413 
L 3916 1413 
Q 3884 1588 3884 2081 
L 3884 4841 
L 4863 4841 
L 4863 0 
z
" transform="scale(0.015625)"/>
      <path id="MicrosoftYaHei-Bold-53" d="M 338 1219 
Q 922 734 1666 734 
Q 2088 734 2300 879 
Q 2513 1025 2513 1253 
Q 2513 1450 2344 1625 
Q 2175 1800 1453 2100 
Q 319 2581 319 3500 
Q 319 4175 833 4548 
Q 1347 4922 2194 4922 
Q 2903 4922 3384 4738 
L 3384 3769 
Q 2897 4100 2244 4100 
Q 1863 4100 1634 3961 
Q 1406 3822 1406 3588 
Q 1406 3400 1562 3242 
Q 1719 3084 2334 2816 
Q 3056 2506 3326 2162 
Q 3597 1819 3597 1344 
Q 3597 647 3103 281 
Q 2609 -84 1700 -84 
Q 869 -84 338 184 
L 338 1219 
z
" transform="scale(0.015625)"/>
      <path id="MicrosoftYaHei-Bold-47" d="M 4494 325 
Q 3784 -84 2750 -84 
Q 1594 -84 925 566 
Q 256 1216 256 2344 
Q 256 3488 992 4205 
Q 1728 4922 2931 4922 
Q 3706 4922 4284 4703 
L 4284 3725 
Q 3722 4053 2909 4053 
Q 2209 4053 1775 3597 
Q 1341 3141 1341 2394 
Q 1341 1634 1733 1209 
Q 2125 784 2803 784 
Q 3206 784 3463 909 
L 3463 1903 
L 2484 1903 
L 2484 2731 
L 4494 2731 
L 4494 325 
z
" transform="scale(0.015625)"/>
      <path id="MicrosoftYaHei-Bold-41" d="M 4759 0 
L 3634 0 
L 3272 1109 
L 1513 1109 
L 1156 0 
L 38 0 
L 1809 4841 
L 3022 4841 
L 4759 0 
z
M 3028 1906 
L 2478 3584 
Q 2425 3744 2403 4006 
L 2375 4006 
Q 2356 3794 2291 3597 
L 1738 1906 
L 3028 1906 
z
" transform="scale(0.015625)"/>
      <path id="MicrosoftYaHei-Bold-2d" d="M 2328 1497 
L 481 1497 
L 481 2209 
L 2328 2209 
L 2328 1497 
z
" transform="scale(0.015625)"/>
      <path id="MicrosoftYaHei-Bold-49" d="M 1588 4841 
L 1588 0 
L 556 0 
L 556 4841 
L 1588 4841 
z
" transform="scale(0.015625)"/>
      <path id="MicrosoftYaHei-Bold-50" d="M 1591 1688 
L 1591 0 
L 559 0 
L 559 4841 
L 2225 4841 
Q 4031 4841 4031 3309 
Q 4031 2566 3486 2117 
Q 2941 1669 2122 1688 
L 1591 1688 
z
M 1591 4041 
L 1591 2478 
L 2038 2478 
Q 2947 2478 2947 3269 
Q 2947 4041 2047 4041 
L 1591 4041 
z
" transform="scale(0.015625)"/>
      <path id="MicrosoftYaHei-Bold-61" d="M 544 3247 
Q 778 3378 1170 3459 
Q 1563 3541 1841 3541 
Q 3291 3541 3291 2088 
L 3291 0 
L 2331 0 
L 2331 503 
L 2319 503 
Q 1966 -84 1284 -84 
Q 794 -84 498 195 
Q 203 475 203 956 
Q 203 1950 1388 2113 
L 2338 2241 
Q 2338 2844 1709 2844 
Q 1091 2844 544 2469 
L 544 3247 
z
M 1684 1566 
Q 1138 1494 1138 1072 
Q 1138 878 1270 759 
Q 1403 641 1628 641 
Q 1938 641 2138 859 
Q 2338 1078 2338 1403 
L 2338 1650 
L 1684 1566 
z
" transform="scale(0.015625)"/>
      <path id="MicrosoftYaHei-Bold-72" d="M 2663 2541 
Q 2478 2647 2216 2647 
Q 1872 2647 1670 2384 
Q 1469 2122 1469 1663 
L 1469 0 
L 459 0 
L 459 3456 
L 1469 3456 
L 1469 2806 
L 1481 2806 
Q 1731 3516 2391 3516 
Q 2569 3516 2663 3475 
L 2663 2541 
z
" transform="scale(0.015625)"/>
      <path id="MicrosoftYaHei-Bold-65" d="M 3528 1444 
L 1253 1444 
Q 1306 641 2222 641 
Q 2794 641 3231 922 
L 3231 181 
Q 2759 -84 1994 -84 
Q 1169 -84 711 381 
Q 253 847 253 1678 
Q 253 2506 740 3023 
Q 1228 3541 1966 3541 
Q 2700 3541 3114 3095 
Q 3528 2650 3528 1872 
L 3528 1444 
z
M 2588 2075 
Q 2588 2850 1959 2850 
Q 1700 2850 1500 2637 
Q 1300 2425 1250 2075 
L 2588 2075 
z
" transform="scale(0.015625)"/>
      <path id="MicrosoftYaHei-Bold-74" d="M 2494 41 
Q 2266 -84 1803 -84 
Q 703 -84 703 1072 
L 703 2703 
L 134 2703 
L 134 3456 
L 703 3456 
L 703 4216 
L 1706 4503 
L 1706 3456 
L 2494 3456 
L 2494 2703 
L 1706 2703 
L 1706 1247 
Q 1706 694 2144 694 
Q 2313 694 2494 794 
L 2494 41 
z
" transform="scale(0.015625)"/>
      <path id="MicrosoftYaHei-Bold-6f" d="M 253 1713 
Q 253 2566 764 3053 
Q 1275 3541 2138 3541 
Q 2972 3541 3462 3061 
Q 3953 2581 3953 1772 
Q 3953 922 3450 419 
Q 2947 -84 2088 -84 
Q 1244 -84 748 398 
Q 253 881 253 1713 
z
M 1275 1725 
Q 1275 691 2119 691 
Q 2928 691 2928 1753 
Q 2928 2766 2113 2766 
Q 1716 2766 1495 2494 
Q 1275 2222 1275 1725 
z
" transform="scale(0.015625)"/>
      <path id="MicrosoftYaHei-Bold-524d" d="M 4256 5359 
L 5275 5103 
Q 5094 4878 4897 4653 
L 6294 4653 
L 6294 3916 
L 100 3916 
L 100 4653 
L 1428 4653 
Q 1288 4881 1138 5103 
L 2075 5359 
Q 2316 4997 2528 4653 
L 3797 4653 
Q 4038 5003 4256 5359 
z
M 5106 3647 
L 5950 3647 
L 5950 191 
Q 5950 -231 5765 -465 
Q 5581 -700 5250 -745 
Q 4919 -791 4063 -791 
Q 4006 -428 3881 91 
Q 4450 66 4744 66 
Q 5106 66 5106 459 
L 5106 3647 
z
M 1306 -784 
L 456 -784 
L 456 3572 
L 3425 3572 
L 3425 103 
Q 3425 -303 3237 -518 
Q 3050 -734 2706 -761 
Q 2363 -788 1881 -791 
Q 1781 -253 1706 41 
Q 2181 16 2269 16 
Q 2575 16 2575 359 
L 2575 559 
L 1306 559 
L 1306 -784 
z
M 2575 2809 
L 1306 2809 
L 1306 2359 
L 2575 2359 
L 2575 2809 
z
M 1306 1234 
L 2575 1234 
L 2575 1684 
L 1306 1684 
L 1306 1234 
z
M 3869 3466 
L 4650 3466 
L 4650 491 
L 3869 491 
L 3869 3466 
z
" transform="scale(0.015625)"/>
      <path id="MicrosoftYaHei-Bold-6cbf" d="M 694 5297 
Q 1625 4691 1913 4441 
L 1350 3803 
Q 869 4234 175 4741 
L 694 5297 
z
M 6306 3391 
Q 6231 3047 6144 2603 
Q 5719 2591 5219 2591 
Q 4525 2591 4525 3391 
L 4525 4341 
L 3350 4341 
Q 3350 3538 3108 3089 
Q 2866 2641 2419 2259 
Q 2094 2634 1725 2934 
Q 2247 3338 2370 3734 
Q 2494 4131 2494 5103 
L 5388 5103 
L 5388 3659 
Q 5388 3394 5591 3383 
Q 5794 3372 6306 3391 
z
M 625 3634 
Q 1213 3234 1738 2784 
L 1150 2134 
Q 731 2547 81 3047 
L 625 3634 
z
M 2163 -841 
L 2163 2216 
L 5863 2216 
L 5863 -834 
L 5013 -834 
L 5013 -522 
L 3013 -522 
L 3013 -841 
L 2163 -841 
z
M 5013 1453 
L 3013 1453 
L 3013 241 
L 5013 241 
L 5013 1453 
z
M 956 1947 
Q 1331 1766 1775 1622 
Q 1406 559 994 -759 
Q 575 -597 144 -466 
Q 588 603 956 1947 
z
" transform="scale(0.015625)"/>
      <path id="MicrosoftYaHei-Bold-6563" d="M 4069 5328 
L 4906 5247 
Q 4788 4791 4650 4366 
L 6294 4366 
L 6294 3603 
L 6000 3603 
Q 5888 1959 5300 909 
Q 5731 378 6350 9 
Q 6094 -291 5813 -803 
Q 5225 -372 4800 209 
Q 4313 -359 3638 -866 
Q 3500 -597 3256 -278 
Q 3144 -803 2619 -816 
Q 2325 -841 1800 -841 
Q 1744 -547 1638 -134 
Q 1994 -159 2238 -166 
Q 2519 -159 2519 134 
L 2519 209 
L 1125 209 
L 1125 -841 
L 356 -841 
L 356 2622 
L 3138 2622 
L 3081 2691 
Q 3156 2822 3231 2966 
L 88 2966 
L 88 3628 
L 694 3628 
L 694 4103 
L 231 4103 
L 231 4766 
L 694 4766 
L 694 5309 
L 1469 5309 
L 1469 4766 
L 2169 4766 
L 2169 5309 
L 2944 5309 
L 2944 4766 
L 3413 4766 
L 3413 4103 
L 2944 4103 
L 2944 3628 
L 3475 3628 
L 3475 3447 
Q 3869 4328 4069 5328 
z
M 3288 34 
Q 3919 434 4350 953 
Q 4013 1634 3844 2478 
Q 3713 2234 3569 2003 
Q 3438 2216 3288 2422 
L 3288 34 
z
M 4819 1703 
Q 5169 2491 5250 3603 
L 4369 3603 
L 4350 3566 
Q 4481 2472 4819 1703 
z
M 1125 759 
L 2519 759 
L 2519 1103 
L 1125 1103 
L 1125 759 
z
M 2519 1997 
L 1125 1997 
L 1125 1653 
L 2519 1653 
L 2519 1997 
z
M 1469 3628 
L 2169 3628 
L 2169 4103 
L 1469 4103 
L 1469 3628 
z
" transform="scale(0.015625)"/>
      <path id="MicrosoftYaHei-Bold-70b9" d="M 825 3503 
L 2675 3503 
L 2675 5316 
L 3563 5316 
L 3563 4791 
L 6181 4791 
L 6181 4003 
L 3563 4003 
L 3563 3503 
L 5675 3503 
L 5675 1128 
L 825 1128 
L 825 3503 
z
M 4763 2741 
L 1738 2741 
L 1738 1891 
L 4763 1891 
L 4763 2741 
z
M 5550 991 
Q 5944 247 6275 -509 
L 5494 -816 
Q 5119 34 4800 678 
L 5550 991 
z
M 856 941 
L 1625 616 
Q 1325 -41 850 -903 
L 119 -516 
Q 550 247 856 941 
z
M 4113 897 
Q 4388 291 4663 -416 
L 3844 -666 
Q 3613 16 3344 653 
L 4113 897 
z
M 2638 834 
Q 2931 59 3113 -509 
L 2300 -716 
Q 2044 116 1856 622 
L 2638 834 
z
" transform="scale(0.015625)"/>
      <path id="MicrosoftYaHei-Bold-56fe" d="M 369 -841 
L 369 5072 
L 6019 5072 
L 6019 -834 
L 5156 -834 
L 5156 -591 
L 1231 -591 
L 1231 -841 
L 369 -841 
z
M 4875 3978 
L 4875 3466 
Q 4547 3022 4006 2678 
Q 4513 2541 5156 2463 
L 5156 4316 
L 3256 4316 
Q 3141 4144 3009 3978 
L 4875 3978 
z
M 2394 4316 
L 1231 4316 
L 1231 3231 
Q 2016 3747 2394 4316 
z
M 3228 2959 
Q 3666 3163 3919 3416 
L 2575 3416 
Q 2828 3156 3228 2959 
z
M 1644 2747 
Q 1481 2925 1231 3147 
L 1231 2400 
Q 1950 2522 2500 2688 
Q 2266 2863 2078 3063 
Q 1872 2900 1644 2747 
z
M 1669 1303 
Q 3319 1084 4775 841 
L 4600 166 
L 5156 166 
L 5156 2388 
Q 5019 2159 4825 1822 
Q 3897 1978 3219 2275 
Q 2872 2134 2472 2019 
Q 3509 1888 4500 1722 
L 4375 1128 
Q 3344 1309 2063 1484 
L 2159 1934 
Q 1856 1859 1525 1797 
Q 1409 2059 1231 2347 
L 1231 166 
L 4569 166 
Q 3297 425 1494 647 
L 1669 1303 
z
" transform="scale(0.015625)"/>
     </defs>
     <use xlink:href="#MicrosoftYaHei-Bold-4e"/>
     <use xlink:href="#MicrosoftYaHei-Bold-53" transform="translate(84.814453 0)"/>
     <use xlink:href="#MicrosoftYaHei-Bold-47" transform="translate(144.970703 0)"/>
     <use xlink:href="#MicrosoftYaHei-Bold-41" transform="translate(221.484375 0)"/>
     <use xlink:href="#MicrosoftYaHei-Bold-2d" transform="translate(296.679688 0)"/>
     <use xlink:href="#MicrosoftYaHei-Bold-49" transform="translate(340.332031 0)"/>
     <use xlink:href="#MicrosoftYaHei-Bold-49" transform="translate(373.876953 0)"/>
     <use xlink:href="#MicrosoftYaHei-Bold-20" transform="translate(407.421875 0)"/>
     <use xlink:href="#MicrosoftYaHei-Bold-50" transform="translate(437.207031 0)"/>
     <use xlink:href="#MicrosoftYaHei-Bold-61" transform="translate(500.179688 0)"/>
     <use xlink:href="#MicrosoftYaHei-Bold-72" transform="translate(557.943359 0)"/>
     <use xlink:href="#MicrosoftYaHei-Bold-65" transform="translate(599.826172 0)"/>
     <use xlink:href="#MicrosoftYaHei-Bold-74" transform="translate(658.029297 0)"/>
     <use xlink:href="#MicrosoftYaHei-Bold-6f" transform="translate(698.935547 0)"/>
     <use xlink:href="#MicrosoftYaHei-Bold-20" transform="translate(764.658203 0)"/>
     <use xlink:href="#MicrosoftYaHei-Bold-524d" transform="translate(794.443359 0)"/>
     <use xlink:href="#MicrosoftYaHei-Bold-6cbf" transform="translate(894.443359 0)"/>
     <use xlink:href="#MicrosoftYaHei-Bold-6563" transform="translate(994.443359 0)"/>
     <use xlink:href="#MicrosoftYaHei-Bold-70b9" transform="translate(1094.443359 0)"/>
     <use xlink:href="#MicrosoftYaHei-Bold-56fe" transform="translate(1194.443359 0)"/>
    </g>
   </g>
   <g id="PathCollection_2">
    <defs>
     <path id="m22591567e2" d="M 0 6.708204 
C 1.779036 6.708204 3.485448 6.001385 4.743416 4.743416 
C 6.001385 3.485448 6.708204 1.779036 6.708204 0 
C 6.708204 -1.779036 6.001385 -3.485448 4.743416 -4.743416 
C 3.485448 -6.001385 1.779036 -6.708204 0 -6.708204 
C -1.779036 -6.708204 -3.485448 -6.001385 -4.743416 -4.743416 
C -6.001385 -3.485448 -6.708204 -1.779036 -6.708204 0 
C -6.708204 1.779036 -6.001385 3.485448 -4.743416 4.743416 
C -3.485448 6.001385 -1.779036 6.708204 0 6.708204 
z
" style="stroke: #ffffff; stroke-width: 2"/>
    </defs>
    <g clip-path="url(#pd24ed6d945)">
     <use xlink:href="#m22591567e2" x="73.286169" y="373.347885" style="fill: #43a047; stroke: #ffffff; stroke-width: 2"/>
    </g>
   </g>
   <g id="PathCollection_3">
    <defs>
     <path id="m62696a6817" d="M 0 6.708204 
C 1.779036 6.708204 3.485448 6.001385 4.743416 4.743416 
C 6.001385 3.485448 6.708204 1.779036 6.708204 0 
C 6.708204 -1.779036 6.001385 -3.485448 4.743416 -4.743416 
C 3.485448 -6.001385 1.779036 -6.708204 0 -6.708204 
C -1.779036 -6.708204 -3.485448 -6.001385 -4.743416 -4.743416 
C -6.001385 -3.485448 -6.708204 -1.779036 -6.708204 0 
C -6.708204 1.779036 -6.001385 3.485448 -4.743416 4.743416 
C -3.485448 6.001385 -1.779036 6.708204 0 6.708204 
z
" style="stroke: #ffffff; stroke-width: 2"/>
    </defs>
    <g clip-path="url(#pd24ed6d945)">
     <use xlink:href="#m62696a6817" x="187.336456" y="182.828654" style="fill: #1e88e5; stroke: #ffffff; stroke-width: 2"/>
    </g>
   </g>
   <g id="PathCollection_4">
    <defs>
     <path id="mca362bcf87" d="M 0 6.708204 
C 1.779036 6.708204 3.485448 6.001385 4.743416 4.743416 
C 6.001385 3.485448 6.708204 1.779036 6.708204 0 
C 6.708204 -1.779036 6.001385 -3.485448 4.743416 -4.743416 
C 3.485448 -6.001385 1.779036 -6.708204 0 -6.708204 
C -1.779036 -6.708204 -3.485448 -6.001385 -4.743416 -4.743416 
C -6.001385 -3.485448 -6.708204 -1.779036 -6.708204 0 
C -6.708204 1.779036 -6.001385 3.485448 -4.743416 4.743416 
C -3.485448 6.001385 -1.779036 6.708204 0 6.708204 
z
" style="stroke: #ffffff; stroke-width: 2"/>
    </defs>
    <g clip-path="url(#pd24ed6d945)">
     <use xlink:href="#mca362bcf87" x="544.456417" y="68.517115" style="fill: #e53935; stroke: #ffffff; stroke-width: 2"/>
    </g>
   </g>
  </g>
 </g>
 <defs>
  <clipPath id="pd24ed6d945">
   <rect x="49.727656" y="22.7925" width="518.287273" height="396.28"/>
  </clipPath>
 </defs>
</svg>
